<?xml version="1.0" encoding="utf-8"?>
<!-- Generator: Adobe Illustrator 24.1.1, SVG Export Plug-In . SVG Version: 6.00 Build 0)  -->
<svg version="1.1" id="Layer_1" xmlns="http://www.w3.org/2000/svg" xmlns:xlink="http://www.w3.org/1999/xlink" x="0px" y="0px"
	 viewBox="0 0 322.35 430.59" style="enable-background:new 0 0 322.35 430.59;" xml:space="preserve">
<style type="text/css">
	.st0{fill:none;stroke:#FFFFFF;stroke-width:20;stroke-miterlimit:10;}
	.st1{fill:none;stroke:#000000;stroke-width:20;stroke-miterlimit:10;}
</style>
<path class="st0" d="M179.98,28.33c-26.32,47.66-52.65,95.31-78.97,142.97c50.59,0.39,101.18,0.78,151.76,1.18
	C228.51,124.43,204.25,76.38,179.98,28.33z"/>
<path class="st1" d="M49.41-75.29"/>
<path class="st0" d="M83.69,201.86c118.55-5.71,178.05-6.13,178.49-1.28c0.09,1.04-2.52,2.32-7.84,3.85
	c-43.07,5.69-98.09,20.18-146.28,59.16C43.64,315.7,20.61,387.98,16.31,386.1C13.25,384.76,24.55,348.28,83.69,201.86z"/>
<path class="st0" d="M329.41-11.76"/>
<path class="st0" d="M266.13,226.13c12.16,53.33,24.31,106.67,36.47,160c-20.39-50.98-40.78-101.96-61.18-152.94
	C249.66,230.84,257.89,228.49,266.13,226.13z"/>
</svg>
