<?xml version="1.0" encoding="utf-8"?>
<!-- Generator: Adobe Illustrator 24.1.1, SVG Export Plug-In . SVG Version: 6.00 Build 0)  -->
<svg version="1.1" id="Layer_1" xmlns="http://www.w3.org/2000/svg" xmlns:xlink="http://www.w3.org/1999/xlink" x="0px" y="0px"
	 viewBox="0 0 559 897" style="enable-background:new 0 0 559 897;" xml:space="preserve">
<g transform="translate(0.000000,897.000000) scale(0.100000,-0.100000)">
	<path d="M2930,8959c-344-16-623-85-915-228c-231-114-406-241-600-436c-61-60-145-137-188-169c-432-325-715-757-806-1230
		c-109-564,21-1117,384-1641c250-360,780-877,1547-1511c451-373,600-505,803-708c215-216,275-293,350-448c55-114,75-188,82-298
		c6-96-6-173-39-257c-21-53-27-59-73-76c-136-51-374-73-521-46c-401,71-763,376-1088,916c-21,35-43,63-50,63c-7,0-32-13-57-29
		c-74-48-229-141-233-141c-3,0-54-31-113-68c-59-37-135-84-168-102c-33-19-67-39-77-45c-9-5-56-34-105-63c-48-29-153-94-233-143
		s-152-92-160-96c-26-12-144-86-180-114c-19-15-137-88-262-164C98,1847,0,1782,0,1774c0-8,30-70,66-137c207-379,396-640,644-887
		c219-218,401-350,665-480c247-122,484-196,775-241c172-27,628-38,819-19c636,61,1161,302,1561,716c47,48,128,120,181,160
		c402,304,684,722,804,1189c61,240,70,318,70,640c0,259-3,304-23,418c-84,467-268,823-647,1257c-192,218-401,409-1095,995
		c-637,539-1034,894-1208,1081c-152,163-223,311-223,465c0,43,2,83,5,88c20,32,266,41,394,15c322-65,649-312,972-731
		c39-51,70-83,82-83c10,0,283,234,615,528c328,290,684,605,792,700c108,95,197,181,199,191c2,10-38,62-100,131
		c-399,446-754,740-1106,918c-314,159-659,255-962,268c-63,2-135,6-160,7C3095,8965,3010,8963,2930,8959z M3500,8901
		c671-123,1188-450,1813-1144c53-60,97-112,96-115c0-9-409-367-418-367c-3,0-49,47-101,105c-610,676-1113,1004-1737,1135
		c-313,65-761,62-1082-6c-152-32-362-107-510-180l-136-67l65,60c361,334,772,528,1256,592C2913,8937,3347,8929,3500,8901z
		 M3050,8501c639-117,1145-424,1723-1047c82-87,157-171,168-186l19-26l-333-295l-332-295l-18,24c-110,143-202,250-307,355
		c-191,192-351,304-540,380c-131,52-224,69-377,69c-191,0-324-38-456-129c-74-51-172-164-203-236c-16-36-34-65-42-65
		c-23,0-114-42-179-82c-84-53-188-166-225-244c-74-158-49-356,65-532c112-170,494-524,1337-1237c693-585,897-771,1085-985
		c379-434,563-790,647-1257c20-113,23-161,23-398c0-300-10-384-70-620c-57-223-150-434-275-625c-109-166-161-223-252-278
		c-328-197-690-312-1109-352c-188-18-606-8-779,19c-290,45-528,119-775,241c-385,190-680,444-972,836c-118,159-345,527-332,538
		c22,17,759,456,766,456c5,0,29-34,52-76c232-407,527-721,817-869c163-83,300-115,500-115c252,0,451,62,623,194
		c74,57,192,182,221,235c19,32,40,50,98,81c197,107,356,281,424,466c18,49,21,82,22,199c1,165-11,222-79,363
		c-75,156-135,232-355,453c-208,208-355,338-808,713c-766,633-1288,1142-1537,1501c-305,440-449,908-415,1355
		c29,396,150,717,387,1032c64,85,84,103,158,148c259,157,565,262,881,304C2463,8537,2897,8529,3050,8501z M1143,7963
		c-321-485-398-1123-203-1693c70-208,178-417,315-615c250-360,780-877,1547-1511c451-373,600-505,803-708c215-216,275-292,350-448
		c65-136,80-200,79-343c-1-134-15-186-80-302c-60-108-201-244-326-317c-53-31-55-28-31,35c12,33,17,79,17,184c1,165-12,222-79,363
		c-75,156-135,232-355,453c-208,208-355,338-808,713c-766,633-1288,1142-1537,1501c-305,440-449,908-415,1355
		c34,454,190,817,504,1174c58,66,264,256,277,256C1205,8060,1178,8016,1143,7963z M3238,7434c212-43,445-176,659-378
		c129-121,368-406,360-429c-2-6-95-93-208-193l-204-182l-18,24c-105,137-202,250-307,355c-191,192-351,304-540,380
		c-145,58-234,72-415,67l-153-4l24,47c28,57,121,159,181,200c71,49,158,88,240,108C2956,7454,3131,7456,3238,7434z M2357,6927
		c2-172,69-314,230-486c182-195,573-545,1213-1086c693-585,897-771,1085-985c379-434,563-790,647-1257c20-113,23-161,23-398
		c0-300-10-384-70-620c-112-436-362-824-724-1124l-53-45l72,110c134,203,226,409,285,639c61,240,70,318,70,640c0,259-3,304-23,418
		c-84,467-268,823-647,1257c-192,218-401,409-1095,995c-860,727-1228,1069-1335,1240c-86,138-120,313-82,421c54,149,181,277,351,351
		c28,12,51,22,52,23C2356,7020,2357,6978,2357,6927z M1919,2680c300-462,644-733,1015-799c100-18,319-13,421,9c50,10,101,22,114,26
		c21,6,22,5,12-15c-19-35-141-160-202-206c-116-90-253-150-412-180c-92-17-277-20-363-4c-410,73-777,388-1108,952
		c-32,54-56,100-54,101c9,8,200,126,203,126c5,0,204,121,235,143C1810,2854,1795,2871,1919,2680z M566,1948c233-416,511-757,812-997
		c275-219,616-385,967-472c225-55,364-71,669-76c307-6,445,3,666,43c255,46,474,119,698,233l117,60l-75-71C4043,312,3539,96,2949,40
		c-188-18-606-8-779,19c-465,72-868,244-1222,521c-180,141-402,382-575,625c-130,183-342,550-326,566c11,11,446,277,454,278
		C505,2050,534,2004,566,1948z"/>
</g>
<path d="M-129,118"/>
</svg>
