<?xml version="1.0" encoding="utf-8"?>
<!-- Generator: Adobe Illustrator 24.1.1, SVG Export Plug-In . SVG Version: 6.00 Build 0)  -->
<svg version="1.1" id="Layer_1" xmlns="http://www.w3.org/2000/svg" xmlns:xlink="http://www.w3.org/1999/xlink" x="0px" y="0px"
	 viewBox="0 0 792 612" style="enable-background:new 0 0 792 612;" xml:space="preserve">
<style type="text/css">
	.st0{fill:none;stroke:#FFFFFF;stroke-miterlimit:10;}
	.st1{fill:none;stroke:#FFD700;stroke-miterlimit:10;}
</style>
<line class="st0" x1="898.3" y1="1114.3" x2="898.3" y2="1113.7"/>
<path class="st1" d="M188.6,466.2c5.7,3,11.4,6.1,17.1,9.1c13.1-29.2,26.2-58.4,39.3-87.5c46.3-0.3,92.7-0.6,139-1
	c12.6,29.1,25.2,58.2,37.8,87.3c6.2-2.4,12.4-4.8,18.5-7.1c-38.7-88.3-77.5-176.5-116.2-264.8c-5.9-0.1-11.7-0.2-17.6-0.2
	C267.1,290.1,227.9,378.2,188.6,466.2"/>
<path class="st1" d="M315.5,228.6c20.4,46.9,40.9,93.8,61.3,140.7c-40.7-0.3-81.4-0.6-122.1-1C274.9,321.8,295.2,275.2,315.5,228.6z
	"/>
<path class="st1" d="M292.8,74.4c5.9-2.7,11.8-5.5,17.7-8.2c15,34.3,30,68.5,45,102.8c10.9-3.8,26.4-8,45.1-10
	c7.7-0.8,33.6-3.3,60.1,2.6c48.7,10.9,79.9,46.1,91.5,60.6c-5.2,4-10.5,7.9-15.7,11.9c-11-13.4-38-42.5-79.4-51.8
	c-23.6-5.3-47.1-3.2-55.1-2.4c-15.8,1.6-28.7,4.8-38,7.6c15.8,35.9,31.7,71.8,47.5,107.6c50.9,1,101.7,1.9,152.5,2.9
	c0.3,3.6,0.5,7.2,0.8,10.8c3.3,0.4,6.6,0.9,9.9,1.3c0.5,14-0.3,48-21.4,83.4c-24.6,41.3-61.4,58-73.8,63.1c12,26.9,24,53.7,36,80.6
	c-6.3,2.7-12.6,5.5-18.9,8.2C428.8,388.4,360.8,231.4,292.8,74.4"/>
<path class="st1" d="M472.9,439.2c-18.3-41.1-36.6-82.2-54.9-123.3c46.3,1,92.7,1.9,139,2.9c-0.4,11.9-3,42.3-24.2,72.7
	C511.6,421.8,483.9,434.7,472.9,439.2z"/>
<path class="st1" d="M306.4,202c-3.3-1.3-6.5-2.6-9.8-3.9c-37.7,84.4-75.3,168.7-113,253.1c1.6,5,3.3,10,4.9,15"/>
<path class="st1" d="M296.6,198.1c7,0.1,14,0.2,21,0.4c2.1,1.3,4.2,2.5,6.3,3.8"/>
<path class="st1" d="M308.6,244.3c16.6,37.6,33.1,75.2,49.7,112.8c-32.6-0.6-65.3-1.3-97.9-1.9"/>
<path class="st1" d="M358.3,357.1c6.2,4.1,12.3,8.1,18.5,12.2"/>
<path class="st1" d="M310.5,66.2c3.9,0.1,7.8,0.2,11.7,0.3c13.1,28.7,26.1,57.4,39.2,86c10.2-3.1,24.9-6.6,42.8-8.2
	c17.9-1.6,43.6-3.7,74.1,6.4c35.5,11.7,56.9,32.7,65.9,41.7c12,12,20.2,23.7,25.7,32.4c-5.9-0.9-11.8-1.8-17.7-2.7"/>
<path class="st1" d="M569.9,225c-5.7,4.5-11.4,9-17.1,13.5c-5.4-1.5-10.8-2.9-16.2-4.4"/>
<path class="st1" d="M378.7,183.7c14.7,32.9,29.3,65.8,44,98.7c50.3,1.3,100.6,2.7,150.9,4c-3.2,3.9-6.3,7.7-9.5,11.6"/>
<path class="st1" d="M573.6,286.4c0.2,4,0.4,8,0.6,12c3.3,0.2,6.7,0.5,10,0.7c-3.1,3.7-6.2,7.4-9.3,11"/>
<path class="st1" d="M584.2,299.1c1.1,13.2,1.4,33.3-4.6,56.9c-2.6,10.1-8.2,31.5-24.4,53.8c-20.8,28.8-47.3,43-61.8,49.4
	c9.3,20.8,18.5,41.6,27.8,62.4c-1.3,5.1-2.6,10.2-3.9,15.3"/>
<path class="st1" d="M370.7,387c11.2,27.2,22.3,54.3,33.5,81.5c5.8,1.9,11.7,3.9,17.5,5.8"/>
<path class="st1" d="M435.5,316.2c17.2,38.7,34.4,77.4,51.6,116.2"/>
</svg>
