<?xml version="1.0" encoding="utf-8"?>
<!-- Generator: Adobe Illustrator 24.1.1, SVG Export Plug-In . SVG Version: 6.00 Build 0)  -->
<svg version="1.1" id="Layer_1" xmlns="http://www.w3.org/2000/svg" xmlns:xlink="http://www.w3.org/1999/xlink" x="0px" y="0px"
	 viewBox="0 0 2139.3 2096.5" style="enable-background:new 0 0 2139.3 2096.5;" xml:space="preserve">
<style type="text/css">
	.st0{fill:none;stroke:#FFFFFF;stroke-miterlimit:10;}
	.st1{fill:none;stroke:#FFFFFF;stroke-width:30;stroke-miterlimit:10;}
</style>
<line class="st0" x1="508.4" y1="1102.8" x2="508.4" y2="1100.2"/>
<g>
	<line class="st1" x1="205.4" y1="1468.9" x2="706.8" y2="298.7"/>
	<line class="st1" x1="1209.4" y1="1467.6" x2="712.4" y2="304.2"/>
	<line class="st1" x1="380.8" y1="1059.5" x2="1036.3" y2="1061.9"/>
	<line class="st1" x1="680.3" y1="16.4" x2="1559.7" y2="2080.1"/>
	<path class="st1" d="M1172.6,1050.9c213.7,3.4,427.3,6.6,641,9.9"/>
	<path class="st1" d="M1725.5,709.5c-37.2-54.3-94.6-119.9-180.2-172.4c-279.9-171.3-611.2-47.8-656.1-30.4"/>
	<path class="st1" d="M1392.4,1685.3c5.7-3.6,11.6-3.6,17.4-5.4c64.6-24.4,125.4-56.2,176.3-103.1c2-1.9,5.9-1.9,7.8-3.7
		c9.8-7.5,15.7-16.9,25.5-24.4c135.2-131.2,192-311,200.4-488.1"/>
</g>
</svg>
